<svg width="200" height="200" viewBox="0 0 200 200" fill="none" xmlns="http://www.w3.org/2000/svg">
  <rect width="200" height="200" rx="20" fill="#134E4E"/>
  
  <path d="M150 100C150 127.614 127.614 150 100 150C72.3858 150 50 127.614 50 100C50 72.3858 72.3858 50 100 50C110 50 119.5 53 127.5 58" 
        stroke="#2D9191" stroke-width="10" stroke-linecap="round"/>
  
  <path d="M145 105L150 100L155 105" stroke="#2D9191" stroke-width="10" stroke-linecap="round" stroke-linejoin="round"/>
  
  <path d="M85 130V70H110C121.046 70 130 78.9543 130 90C130 101.046 121.046 110 110 110H85L115 130" 
        stroke="white" stroke-width="8" stroke-linecap="round" stroke-linejoin="round"/>
  
  <path d="M110 85C112.761 85 115 87.2386 115 90" stroke="#F6A04D" stroke-width="4" stroke-linecap="round"/>
  <path d="M110 78C116.627 78 122 83.3726 122 90" stroke="#F6A04D" stroke-width="4" stroke-linecap="round"/>
</svg>
